# Blender v2.79 (sub 0) OBJ File: 'LOW_POLYCAR.blend'
# www.blender.org
mtllib LOW_POLYCAR1.mtl
o Cube
v -0.447614 0.458771 0.728161
v -0.447614 0.767421 0.494034
v -0.447614 0.297427 1.355090
v -0.447614 0.089834 1.492510
v -0.447614 0.458771 -0.016192
v -0.447614 0.797705 -0.015748
v -0.447614 0.335512 -0.015748
v -0.447614 0.089834 -0.015748
v -0.447614 0.458771 0.599128
v -0.447614 0.458771 0.389849
v -0.447614 0.458771 0.180570
v -0.447614 0.797705 0.357159
v -0.447614 0.797705 0.229125
v -0.447614 0.797705 0.101091
v -0.447614 0.335512 0.899902
v -0.447614 0.335512 0.589633
v -0.447614 0.335512 0.279364
v -0.447614 0.067859 0.849191
v -0.447614 0.226753 0.589633
v -0.447614 0.074621 0.374024
v -0.447614 0.458771 0.529368
v -0.447614 0.458771 0.459609
v -0.447614 0.797705 0.314481
v -0.447614 0.797705 0.271803
v -0.447614 0.335512 0.796479
v -0.447614 0.335512 0.693056
v -0.447614 0.151814 0.794789
v -0.447614 0.210413 0.715031
v -0.447614 0.458771 0.529368
v -0.447614 0.458771 0.459609
v -0.447614 0.797705 0.314481
v -0.447614 0.797705 0.271803
v -0.447614 0.335512 0.796479
v -0.447614 0.335512 0.693056
v -0.447614 0.151814 0.794789
v -0.447614 0.210413 0.715031
v -0.447614 0.458771 0.323465
v -0.447614 0.458771 0.253705
v -0.447614 0.797705 0.188512
v -0.447614 0.797705 0.145834
v -0.447614 0.335512 0.491214
v -0.447614 0.335512 0.387791
v -0.447614 0.194164 0.477692
v -0.447614 0.128803 0.423289
v -0.327388 0.458771 0.728161
v -0.327388 0.767421 0.494034
v -0.327388 0.297427 1.355090
v -0.327388 0.089834 1.492510
v -0.327388 0.797705 -0.015748
v -0.327388 0.797705 0.101091
v -0.327388 0.797705 0.229125
v -0.327388 0.797705 0.357159
v -0.327388 0.797705 0.271803
v -0.327388 0.797705 0.314481
v -0.327388 0.797705 0.271803
v -0.327388 0.797705 0.314481
v -0.327388 0.797705 0.145834
v -0.327388 0.797705 0.188512
v -0.447614 0.458771 -0.759657
v -0.447614 0.767421 -0.525530
v -0.447614 0.335512 -1.248412
v -0.447614 0.089834 -1.248412
v -0.447614 0.458771 -0.630624
v -0.447614 0.458771 -0.421345
v -0.447614 0.458771 -0.212065
v -0.447614 0.797705 -0.388655
v -0.447614 0.797705 -0.260621
v -0.447614 0.797705 -0.132587
v -0.447614 0.335512 -0.931398
v -0.447614 0.335512 -0.621129
v -0.447614 0.335512 -0.310860
v -0.447614 0.067859 -0.880687
v -0.447614 0.226753 -0.621129
v -0.447614 0.074621 -0.405520
v -0.447614 0.458771 -0.560864
v -0.447614 0.458771 -0.491104
v -0.447614 0.797705 -0.345977
v -0.447614 0.797705 -0.303299
v -0.447614 0.335512 -0.827975
v -0.447614 0.335512 -0.724552
v -0.447614 0.151814 -0.826285
v -0.447614 0.210413 -0.746526
v -0.447614 0.458771 -0.560864
v -0.447614 0.458771 -0.491104
v -0.447614 0.797705 -0.345977
v -0.447614 0.797705 -0.303299
v -0.447614 0.335512 -0.827975
v -0.447614 0.335512 -0.724552
v -0.447614 0.151814 -0.826285
v -0.447614 0.210413 -0.746526
v -0.447614 0.458771 -0.354960
v -0.447614 0.458771 -0.285201
v -0.447614 0.797705 -0.220008
v -0.447614 0.797705 -0.177330
v -0.447614 0.335512 -0.522710
v -0.447614 0.335512 -0.419287
v -0.447614 0.194164 -0.509187
v -0.447614 0.128803 -0.454785
v -0.327388 0.458771 -0.759657
v -0.327388 0.767421 -0.525530
v -0.327388 0.335512 -1.248412
v -0.327388 0.089834 -1.248412
v -0.327388 0.797705 -0.132587
v -0.327388 0.797705 -0.260621
v -0.327388 0.797705 -0.388655
v -0.327388 0.797705 -0.303299
v -0.327388 0.797705 -0.345977
v -0.327388 0.797705 -0.303299
v -0.327388 0.797705 -0.345977
v -0.327388 0.797705 -0.177330
v -0.327388 0.797705 -0.220008
v -0.447614 0.193630 1.423800
v -0.327388 0.193630 1.423800
v 0.447614 0.458771 0.728161
v 0.447614 0.767421 0.494034
v 0.447614 0.297427 1.355090
v 0.447614 0.089834 1.492510
v 0.447614 0.458771 -0.016192
v 0.447614 0.797705 -0.015748
v 0.447614 0.335512 -0.015748
v 0.447614 0.089834 -0.015748
v 0.447614 0.458771 0.599128
v 0.447614 0.458771 0.389849
v 0.447614 0.458771 0.180570
v 0.447614 0.797705 0.357159
v 0.447614 0.797705 0.229125
v 0.447614 0.797705 0.101091
v 0.447614 0.335512 0.899902
v 0.447614 0.335512 0.589633
v 0.447614 0.335512 0.279364
v 0.447614 0.067859 0.849191
v 0.447614 0.226753 0.589633
v 0.447614 0.074621 0.374024
v 0.447614 0.458771 0.529368
v 0.447614 0.458771 0.459609
v 0.447614 0.797705 0.314481
v 0.447614 0.797705 0.271803
v 0.447614 0.335512 0.796479
v 0.447614 0.335512 0.693056
v 0.447614 0.151814 0.794789
v 0.447614 0.210413 0.715031
v 0.447614 0.458771 0.529368
v 0.447614 0.458771 0.459609
v 0.447614 0.797705 0.314481
v 0.447614 0.797705 0.271803
v 0.447614 0.335512 0.796479
v 0.447614 0.335512 0.693056
v 0.447614 0.151814 0.794789
v 0.447614 0.210413 0.715031
v 0.447614 0.458771 0.323465
v 0.447614 0.458771 0.253705
v 0.447614 0.797705 0.188512
v 0.447614 0.797705 0.145834
v 0.447614 0.335512 0.491214
v 0.447614 0.335512 0.387791
v 0.447614 0.194164 0.477692
v 0.447614 0.128803 0.423289
v 0.327388 0.458771 0.728161
v 0.327388 0.767421 0.494034
v 0.327388 0.297427 1.355090
v 0.327388 0.089834 1.492510
v 0.327388 0.797705 -0.015748
v 0.327388 0.797705 0.101091
v 0.327388 0.797705 0.229125
v 0.327388 0.797705 0.357159
v 0.327388 0.797705 0.271803
v 0.327388 0.797705 0.314481
v 0.327388 0.797705 0.271803
v 0.327388 0.797705 0.314481
v 0.327388 0.797705 0.145834
v 0.327388 0.797705 0.188512
v 0.447614 0.458771 -0.759657
v 0.447614 0.767421 -0.525530
v 0.447614 0.335512 -1.248412
v 0.447614 0.089834 -1.248412
v 0.447614 0.458771 -0.630624
v 0.447614 0.458771 -0.421345
v 0.447614 0.458771 -0.212065
v 0.447614 0.797705 -0.388655
v 0.447614 0.797705 -0.260621
v 0.447614 0.797705 -0.132587
v 0.447614 0.335512 -0.931398
v 0.447614 0.335512 -0.621129
v 0.447614 0.335512 -0.310860
v 0.447614 0.067859 -0.880687
v 0.447614 0.226753 -0.621129
v 0.447614 0.074621 -0.405520
v 0.447614 0.458771 -0.560864
v 0.447614 0.458771 -0.491104
v 0.447614 0.797705 -0.345977
v 0.447614 0.797705 -0.303299
v 0.447614 0.335512 -0.827975
v 0.447614 0.335512 -0.724552
v 0.447614 0.151814 -0.826285
v 0.447614 0.210413 -0.746526
v 0.447614 0.458771 -0.560864
v 0.447614 0.458771 -0.491104
v 0.447614 0.797705 -0.345977
v 0.447614 0.797705 -0.303299
v 0.447614 0.335512 -0.827975
v 0.447614 0.335512 -0.724552
v 0.447614 0.151814 -0.826285
v 0.447614 0.210413 -0.746526
v 0.447614 0.458771 -0.354960
v 0.447614 0.458771 -0.285201
v 0.447614 0.797705 -0.220008
v 0.447614 0.797705 -0.177330
v 0.447614 0.335512 -0.522710
v 0.447614 0.335512 -0.419287
v 0.447614 0.194164 -0.509187
v 0.447614 0.128803 -0.454785
v 0.327388 0.458771 -0.759657
v 0.327388 0.767421 -0.525530
v 0.327388 0.335512 -1.248412
v 0.327388 0.089834 -1.248412
v 0.327388 0.797705 -0.132587
v 0.327388 0.797705 -0.260621
v 0.327388 0.797705 -0.388655
v 0.327388 0.797705 -0.303299
v 0.327388 0.797705 -0.345977
v 0.327388 0.797705 -0.303299
v 0.327388 0.797705 -0.345977
v 0.327388 0.797705 -0.177330
v 0.327388 0.797705 -0.220008
v 0.000000 0.458771 0.728161
v 0.000000 0.767421 0.494034
v 0.000000 0.297427 1.355090
v 0.000000 0.089834 1.492510
v 0.000000 0.797705 0.314482
v 0.000000 0.797705 0.101091
v 0.000000 0.797705 0.229125
v 0.000000 0.797705 0.357160
v 0.000000 0.797705 0.271803
v 0.000000 0.797705 0.314482
v 0.000000 0.797705 0.271803
v 0.000000 0.797705 0.145834
v 0.000000 0.797705 0.188512
v 0.000000 0.458771 -0.759657
v 0.000000 0.767421 -0.525530
v 0.000000 0.335512 -1.248412
v 0.000000 0.089834 -1.248412
v 0.000000 0.797705 -0.345977
v 0.000000 0.797412 -0.017759
v 0.000000 0.797705 -0.132587
v 0.000000 0.797705 -0.260621
v 0.000000 0.797705 -0.388656
v 0.000000 0.797705 -0.303299
v 0.000000 0.797705 -0.345977
v 0.000000 0.797705 -0.303299
v 0.000000 0.797705 -0.177330
v 0.000000 0.797705 -0.220008
v 0.447614 0.193630 1.423800
v 0.327388 0.193630 1.423800
vn -0.0000 0.9764 0.2160
vn -0.0000 0.6044 0.7967
vn 0.0000 0.5520 0.8339
vn 0.0000 0.9684 0.2492
vn -1.0000 -0.0000 0.0000
vn 0.0000 0.0000 1.0000
vn 0.0000 1.0000 0.0000
vn 0.0004 1.0000 -0.0012
vn -0.0000 0.9764 -0.2160
vn -0.0000 0.6044 -0.7967
vn 0.0000 0.0000 -1.0000
vn 0.0000 0.9696 -0.2445
vn 0.0005 1.0000 0.0013
vn 1.0000 -0.0000 0.0000
vn -0.0004 1.0000 -0.0012
vn -0.0005 1.0000 0.0013
usemtl Material
s off
f 52//1 12//1 2//1 46//1
f 45//2 46//2 2//2 1//2
f 47//3 3//3 112//3 4//3 48//3 113//3
f 45//4 1//4 3//4 47//4
f 17//5 7//5 8//5 20//5
f 11//5 14//5 6//5 5//5
f 11//5 5//5 7//5 17//5
f 1//5 9//5 15//5 3//5
f 22//6 30//6 34//6 26//6
f 38//5 11//5 17//5 42//5
f 1//5 2//5 12//5 9//5
f 22//6 24//6 32//6 30//6
f 38//5 40//5 14//5 11//5
f 3//5 15//5 18//5 4//5 112//5
f 26//6 34//6 36//6 28//6
f 42//5 17//5 20//5 44//5
f 49//7 6//7 14//7 50//7
f 58//7 39//7 13//7 51//7
f 54//6 23//6 31//6 56//6
f 55//6 32//6 24//6 53//6
f 53//7 24//7 23//7 54//7
f 33//6 25//6 27//6 35//6
f 25//5 26//5 28//5 27//5
f 29//6 31//6 23//6 21//6
f 21//5 23//5 24//5 22//5
f 29//6 21//6 25//6 33//6
f 21//5 22//5 26//5 25//5
f 51//7 13//7 32//7 55//7
f 9//5 12//5 31//5 29//5
f 30//5 10//5 16//5 34//5
f 56//7 31//7 12//7 52//7
f 30//5 32//5 13//5 10//5
f 9//5 29//5 33//5 15//5
f 34//5 16//5 19//5 36//5
f 15//5 33//5 35//5 18//5
f 50//7 14//7 40//7 57//7
f 57//7 40//7 39//7 58//7
f 16//5 41//5 43//5 19//5
f 41//5 42//5 44//5 43//5
f 10//5 13//5 39//5 37//5
f 37//5 39//5 40//5 38//5
f 10//5 37//5 41//5 16//5
f 37//5 38//5 42//5 41//5
f 236//7 57//7 58//7 237//7
f 230//7 50//7 57//7 236//7
f 229//7 56//7 52//7 232//7
f 231//7 51//7 55//7 235//7
f 233//7 53//7 54//7 234//7
f 235//6 55//6 53//6 233//6
f 234//6 54//6 56//6 229//6
f 237//7 58//7 51//7 231//7
f 49//8 50//8 230//8 243//8
f 225//4 45//4 47//4 227//4
f 227//3 47//3 113//3 48//3 228//3
f 225//2 226//2 46//2 45//2
f 232//1 52//1 46//1 226//1
f 105//9 100//9 60//9 66//9
f 99//10 59//10 60//10 100//10
f 101//11 102//11 62//11 61//11
f 99//12 101//12 61//12 59//12
f 71//5 74//5 8//5 7//5
f 65//5 5//5 6//5 68//5
f 65//5 71//5 7//5 5//5
f 59//5 61//5 69//5 63//5
f 76//6 80//6 88//6 84//6
f 92//5 96//5 71//5 65//5
f 59//5 63//5 66//5 60//5
f 76//6 84//6 86//6 78//6
f 92//5 65//5 68//5 94//5
f 61//5 62//5 72//5 69//5
f 80//6 82//6 90//6 88//6
f 96//5 98//5 74//5 71//5
f 49//7 103//7 68//7 6//7
f 111//7 104//7 67//7 93//7
f 107//6 109//6 85//6 77//6
f 108//6 106//6 78//6 86//6
f 106//7 107//7 77//7 78//7
f 87//6 89//6 81//6 79//6
f 79//5 81//5 82//5 80//5
f 83//6 75//6 77//6 85//6
f 75//5 76//5 78//5 77//5
f 83//6 87//6 79//6 75//6
f 75//5 79//5 80//5 76//5
f 104//7 108//7 86//7 67//7
f 63//5 83//5 85//5 66//5
f 84//5 88//5 70//5 64//5
f 109//7 105//7 66//7 85//7
f 84//5 64//5 67//5 86//5
f 63//5 69//5 87//5 83//5
f 88//5 90//5 73//5 70//5
f 69//5 72//5 89//5 87//5
f 103//7 110//7 94//7 68//7
f 110//7 111//7 93//7 94//7
f 70//5 73//5 97//5 95//5
f 95//5 97//5 98//5 96//5
f 64//5 91//5 93//5 67//5
f 91//5 92//5 94//5 93//5
f 64//5 70//5 95//5 91//5
f 91//5 95//5 96//5 92//5
f 250//7 251//7 111//7 110//7
f 244//7 250//7 110//7 103//7
f 242//7 246//7 105//7 109//7
f 245//7 249//7 108//7 104//7
f 247//7 248//7 107//7 106//7
f 249//6 247//6 106//6 108//6
f 248//6 242//6 109//6 107//6
f 251//7 245//7 104//7 111//7
f 243//13 244//13 103//13 49//13
f 238//12 240//12 101//12 99//12
f 240//11 241//11 102//11 101//11
f 238//10 99//10 100//10 239//10
f 246//9 239//9 100//9 105//9
f 165//1 159//1 115//1 125//1
f 158//2 114//2 115//2 159//2
f 160//3 253//3 161//3 117//3 252//3 116//3
f 158//4 160//4 116//4 114//4
f 130//14 133//14 121//14 120//14
f 124//14 118//14 119//14 127//14
f 124//14 130//14 120//14 118//14
f 114//14 116//14 128//14 122//14
f 135//6 139//6 147//6 143//6
f 151//14 155//14 130//14 124//14
f 114//14 122//14 125//14 115//14
f 135//6 143//6 145//6 137//6
f 151//14 124//14 127//14 153//14
f 116//14 252//14 117//14 131//14 128//14
f 139//6 141//6 149//6 147//6
f 155//14 157//14 133//14 130//14
f 162//7 163//7 127//7 119//7
f 171//7 164//7 126//7 152//7
f 167//6 169//6 144//6 136//6
f 168//6 166//6 137//6 145//6
f 166//7 167//7 136//7 137//7
f 146//6 148//6 140//6 138//6
f 138//14 140//14 141//14 139//14
f 142//6 134//6 136//6 144//6
f 134//14 135//14 137//14 136//14
f 142//6 146//6 138//6 134//6
f 134//14 138//14 139//14 135//14
f 164//7 168//7 145//7 126//7
f 122//14 142//14 144//14 125//14
f 143//14 147//14 129//14 123//14
f 169//7 165//7 125//7 144//7
f 143//14 123//14 126//14 145//14
f 122//14 128//14 146//14 142//14
f 147//14 149//14 132//14 129//14
f 128//14 131//14 148//14 146//14
f 163//7 170//7 153//7 127//7
f 170//7 171//7 152//7 153//7
f 129//14 132//14 156//14 154//14
f 154//14 156//14 157//14 155//14
f 123//14 150//14 152//14 126//14
f 150//14 151//14 153//14 152//14
f 123//14 129//14 154//14 150//14
f 150//14 154//14 155//14 151//14
f 236//7 237//7 171//7 170//7
f 230//7 236//7 170//7 163//7
f 229//7 232//7 165//7 169//7
f 231//7 235//7 168//7 164//7
f 233//7 234//7 167//7 166//7
f 235//6 233//6 166//6 168//6
f 234//6 229//6 169//6 167//6
f 237//7 231//7 164//7 171//7
f 162//15 243//15 230//15 163//15
f 225//4 227//4 160//4 158//4
f 227//3 228//3 161//3 253//3 160//3
f 225//2 158//2 159//2 226//2
f 232//1 226//1 159//1 165//1
f 218//9 179//9 173//9 213//9
f 212//10 213//10 173//10 172//10
f 214//11 174//11 175//11 215//11
f 212//12 172//12 174//12 214//12
f 184//14 120//14 121//14 187//14
f 178//14 181//14 119//14 118//14
f 178//14 118//14 120//14 184//14
f 172//14 176//14 182//14 174//14
f 189//6 197//6 201//6 193//6
f 205//14 178//14 184//14 209//14
f 172//14 173//14 179//14 176//14
f 189//6 191//6 199//6 197//6
f 205//14 207//14 181//14 178//14
f 174//14 182//14 185//14 175//14
f 193//6 201//6 203//6 195//6
f 209//14 184//14 187//14 211//14
f 162//7 119//7 181//7 216//7
f 224//7 206//7 180//7 217//7
f 220//6 190//6 198//6 222//6
f 221//6 199//6 191//6 219//6
f 219//7 191//7 190//7 220//7
f 200//6 192//6 194//6 202//6
f 192//14 193//14 195//14 194//14
f 196//6 198//6 190//6 188//6
f 188//14 190//14 191//14 189//14
f 196//6 188//6 192//6 200//6
f 188//14 189//14 193//14 192//14
f 217//7 180//7 199//7 221//7
f 176//14 179//14 198//14 196//14
f 197//14 177//14 183//14 201//14
f 222//7 198//7 179//7 218//7
f 197//14 199//14 180//14 177//14
f 176//14 196//14 200//14 182//14
f 201//14 183//14 186//14 203//14
f 182//14 200//14 202//14 185//14
f 216//7 181//7 207//7 223//7
f 223//7 207//7 206//7 224//7
f 183//14 208//14 210//14 186//14
f 208//14 209//14 211//14 210//14
f 177//14 180//14 206//14 204//14
f 204//14 206//14 207//14 205//14
f 177//14 204//14 208//14 183//14
f 204//14 205//14 209//14 208//14
f 250//7 223//7 224//7 251//7
f 244//7 216//7 223//7 250//7
f 242//7 222//7 218//7 246//7
f 245//7 217//7 221//7 249//7
f 247//7 219//7 220//7 248//7
f 249//6 221//6 219//6 247//6
f 248//6 220//6 222//6 242//6
f 251//7 224//7 217//7 245//7
f 243//16 162//16 216//16 244//16
f 238//12 212//12 214//12 240//12
f 240//11 214//11 215//11 241//11
f 238//10 239//10 213//10 212//10
f 246//9 218//9 213//9 239//9
l 112 113
l 252 253
