# Blender v2.79 (sub 0) OBJ File: 'LOW_POLYCAR.blend'
# www.blender.org
mtllib LOW_POLYCAR.mtl
o Cube
v 0.370393 0.458771 0.728161
v -0.491223 0.458771 0.728161
v 0.370393 0.767421 0.494035
v -0.491223 0.767421 0.494034
v 0.370393 0.335512 1.216916
v -0.491223 0.335512 1.216916
v 0.370393 0.089834 1.216916
v -0.491223 0.089834 1.216916
v 0.370393 0.458771 -0.024160
v -0.491223 0.458771 -0.024160
v 0.370393 0.797705 -0.024160
v -0.491223 0.797705 -0.024160
v 0.370393 0.335512 -0.024160
v -0.491223 0.335512 -0.024160
v 0.370393 0.089834 -0.024160
v -0.491223 0.089834 -0.024160
v 0.370393 0.458771 0.180570
v 0.370393 0.458771 0.389849
v 0.370393 0.458771 0.599128
v 0.370393 0.797705 0.101091
v 0.370393 0.797705 0.229126
v 0.370393 0.797705 0.357160
v 0.370393 0.335512 0.279364
v 0.370393 0.335512 0.589633
v 0.370393 0.335512 0.899902
v 0.370393 0.074621 0.374024
v 0.370393 0.226753 0.589633
v 0.370393 0.067859 0.849191
v -0.491223 0.458771 0.599128
v -0.491223 0.458771 0.389849
v -0.491223 0.458771 0.180570
v -0.491223 0.797705 0.357159
v -0.491223 0.797705 0.229125
v -0.491223 0.797705 0.101091
v -0.491223 0.335512 0.899902
v -0.491223 0.335512 0.589633
v -0.491223 0.335512 0.279364
v -0.491223 0.067859 0.849191
v -0.491223 0.226753 0.589633
v -0.491223 0.074621 0.374024
v 0.370393 0.458771 0.459609
v 0.370393 0.458771 0.529369
v 0.370393 0.797705 0.271804
v 0.370393 0.797705 0.314482
v 0.370393 0.335512 0.693056
v 0.370393 0.335512 0.796479
v 0.370393 0.210413 0.715031
v 0.370393 0.151814 0.794789
v -0.491223 0.458771 0.529368
v -0.491223 0.458771 0.459609
v -0.491223 0.797705 0.314481
v -0.491223 0.797705 0.271803
v -0.491223 0.335512 0.796479
v -0.491223 0.335512 0.693056
v -0.491223 0.151814 0.794789
v -0.491223 0.210413 0.715031
v 0.370393 0.458771 0.459609
v 0.370393 0.458771 0.529369
v 0.370393 0.797705 0.271804
v 0.370393 0.797705 0.314482
v 0.370393 0.335512 0.693056
v 0.370393 0.335512 0.796479
v 0.370393 0.210413 0.715031
v 0.370393 0.151814 0.794789
v -0.491223 0.458771 0.529368
v -0.491223 0.458771 0.459609
v -0.491223 0.797705 0.314481
v -0.491223 0.797705 0.271803
v -0.491223 0.335512 0.796479
v -0.491223 0.335512 0.693056
v -0.491223 0.151814 0.794789
v -0.491223 0.210413 0.715031
v 0.370393 0.458771 0.253705
v 0.370393 0.458771 0.323465
v 0.370393 0.797705 0.145834
v 0.370393 0.797705 0.188512
v 0.370393 0.335512 0.387791
v 0.370393 0.335512 0.491214
v 0.370393 0.128803 0.423289
v 0.370393 0.194164 0.477692
v -0.491223 0.458771 0.323465
v -0.491223 0.458771 0.253705
v -0.491223 0.797705 0.188512
v -0.491223 0.797705 0.145834
v -0.491223 0.335512 0.491214
v -0.491223 0.335512 0.387791
v -0.491223 0.194164 0.477692
v -0.491223 0.128803 0.423289
v 0.370393 0.458771 -0.759657
v -0.491223 0.458771 -0.759657
v 0.370393 0.767421 -0.525531
v -0.491223 0.767421 -0.525530
v 0.370393 0.335512 -1.248412
v -0.491223 0.335512 -1.248412
v 0.370393 0.089834 -1.248412
v -0.491223 0.089834 -1.248412
v 0.370393 0.458771 -0.007336
v -0.491223 0.458771 -0.007336
v 0.370393 0.797705 -0.007336
v -0.491223 0.797705 -0.007336
v 0.370393 0.335512 -0.007336
v -0.491223 0.335512 -0.007336
v 0.370393 0.089834 -0.007336
v -0.491223 0.089834 -0.007336
v 0.370393 0.458771 -0.212065
v 0.370393 0.458771 -0.421345
v 0.370393 0.458771 -0.630624
v 0.370393 0.797705 -0.132587
v 0.370393 0.797705 -0.260621
v 0.370393 0.797705 -0.388656
v 0.370393 0.335512 -0.310860
v 0.370393 0.335512 -0.621129
v 0.370393 0.335512 -0.931398
v 0.370393 0.074621 -0.405520
v 0.370393 0.226753 -0.621129
v 0.370393 0.067859 -0.880687
v -0.491223 0.458771 -0.630624
v -0.491223 0.458771 -0.421345
v -0.491223 0.458771 -0.212065
v -0.491223 0.797705 -0.388655
v -0.491223 0.797705 -0.260621
v -0.491223 0.797705 -0.132587
v -0.491223 0.335512 -0.931398
v -0.491223 0.335512 -0.621129
v -0.491223 0.335512 -0.310860
v -0.491223 0.067859 -0.880687
v -0.491223 0.226753 -0.621129
v -0.491223 0.074621 -0.405520
v 0.370393 0.458771 -0.491105
v 0.370393 0.458771 -0.560864
v 0.370393 0.797705 -0.303300
v 0.370393 0.797705 -0.345978
v 0.370393 0.335512 -0.724552
v 0.370393 0.335512 -0.827975
v 0.370393 0.210413 -0.746527
v 0.370393 0.151814 -0.826285
v -0.491223 0.458771 -0.560864
v -0.491223 0.458771 -0.491104
v -0.491223 0.797705 -0.345977
v -0.491223 0.797705 -0.303299
v -0.491223 0.335512 -0.827975
v -0.491223 0.335512 -0.724552
v -0.491223 0.151814 -0.826285
v -0.491223 0.210413 -0.746526
v 0.370393 0.458771 -0.491105
v 0.370393 0.458771 -0.560864
v 0.370393 0.797705 -0.303300
v 0.370393 0.797705 -0.345978
v 0.370393 0.335512 -0.724552
v 0.370393 0.335512 -0.827975
v 0.370393 0.210413 -0.746527
v 0.370393 0.151814 -0.826285
v -0.491223 0.458771 -0.560864
v -0.491223 0.458771 -0.491104
v -0.491223 0.797705 -0.345977
v -0.491223 0.797705 -0.303299
v -0.491223 0.335512 -0.827975
v -0.491223 0.335512 -0.724552
v -0.491223 0.151814 -0.826285
v -0.491223 0.210413 -0.746526
v 0.370393 0.458771 -0.285201
v 0.370393 0.458771 -0.354961
v 0.370393 0.797705 -0.177330
v 0.370393 0.797705 -0.220008
v 0.370393 0.335512 -0.419287
v 0.370393 0.335512 -0.522710
v 0.370393 0.128803 -0.454785
v 0.370393 0.194164 -0.509187
v -0.491223 0.458771 -0.354960
v -0.491223 0.458771 -0.285201
v -0.491223 0.797705 -0.220008
v -0.491223 0.797705 -0.177330
v -0.491223 0.335512 -0.522710
v -0.491223 0.335512 -0.419287
v -0.491223 0.194164 -0.509187
v -0.491223 0.128803 -0.454785
vn -0.0000 0.9764 0.2160
vn 1.0000 0.0000 0.0000
vn -0.0000 0.6044 0.7967
vn 0.0000 0.0000 1.0000
vn -0.0000 0.9696 0.2445
vn 0.0000 -0.9982 0.0597
vn -1.0000 0.0000 0.0000
vn 0.0000 -0.9993 -0.0382
vn 0.0000 -0.9601 0.2795
vn 0.0000 1.0000 0.0000
vn 0.0000 -0.8059 -0.5921
vn 0.0000 -0.5438 -0.8392
vn 0.0000 -0.9916 -0.1292
vn -0.0000 -0.6727 0.7399
vn -0.0000 -0.6397 0.7686
vn -0.0000 0.9764 -0.2160
vn -0.0000 0.6044 -0.7967
vn 0.0000 0.0000 -1.0000
vn -0.0000 0.9696 -0.2445
vn 0.0000 -0.9982 -0.0597
vn 0.0000 -0.9993 0.0382
vn -0.0000 -0.9601 -0.2795
vn 0.0000 -0.8059 0.5921
vn 0.0000 -0.5438 0.8392
vn 0.0000 -0.9916 0.1292
vn -0.0000 -0.6727 -0.7399
vn -0.0000 -0.6397 -0.7686
usemtl Material
s off
f 22//1 32//1 4//1 3//1
f 19//2 22//2 3//2 1//2
f 1//3 3//3 4//3 2//3
f 5//4 6//4 8//4 7//4
f 1//5 2//5 6//5 5//5
f 19//2 1//2 5//2 25//2
f 28//6 7//6 8//6 38//6
f 25//2 5//2 7//2 28//2
f 37//7 14//7 16//7 40//7
f 31//7 34//7 12//7 10//7
f 31//7 10//7 14//7 37//7
f 2//7 29//7 35//7 6//7
f 50//4 66//4 70//4 54//4
f 82//7 31//7 37//7 86//7
f 2//7 4//7 32//7 29//7
f 50//4 52//4 68//4 66//4
f 82//7 84//7 34//7 31//7
f 6//7 35//7 38//7 8//7
f 54//4 70//4 72//4 56//4
f 86//7 37//7 40//7 88//7
f 13//2 23//2 26//2 15//2
f 78//2 24//2 27//2 80//2
f 46//4 62//4 64//4 48//4
f 15//8 26//8 40//8 16//8
f 80//9 27//9 39//9 87//9
f 48//4 64//4 71//4 55//4
f 9//2 17//2 23//2 13//2
f 74//2 18//2 24//2 78//2
f 42//4 58//4 62//4 46//4
f 9//2 11//2 20//2 17//2
f 74//2 76//2 21//2 18//2
f 42//4 44//4 60//4 58//4
f 11//10 12//10 34//10 20//10
f 76//10 83//10 33//10 21//10
f 44//4 51//4 67//4 60//4
f 59//4 68//4 52//4 43//4
f 43//10 52//10 51//10 44//10
f 57//4 59//4 43//4 41//4
f 41//2 43//2 44//2 42//2
f 57//4 41//4 45//4 61//4
f 41//2 42//2 46//2 45//2
f 63//4 47//4 56//4 72//4
f 47//11 48//11 55//11 56//11
f 61//4 45//4 47//4 63//4
f 45//2 46//2 48//2 47//2
f 69//4 53//4 55//4 71//4
f 53//7 54//7 56//7 55//7
f 65//4 67//4 51//4 49//4
f 49//7 51//7 52//7 50//7
f 65//4 49//4 53//4 69//4
f 49//7 50//7 54//7 53//7
f 18//2 21//2 59//2 57//2
f 58//2 19//2 25//2 62//2
f 21//10 33//10 68//10 59//10
f 58//2 60//2 22//2 19//2
f 18//2 57//2 61//2 24//2
f 62//2 25//2 28//2 64//2
f 24//2 61//2 63//2 27//2
f 64//12 28//12 38//12 71//12
f 29//7 32//7 67//7 65//7
f 66//7 30//7 36//7 70//7
f 60//10 67//10 32//10 22//10
f 66//7 68//7 33//7 30//7
f 29//7 65//7 69//7 35//7
f 70//7 36//7 39//7 72//7
f 35//7 69//7 71//7 38//7
f 27//13 63//13 72//13 39//13
f 20//10 34//10 84//10 75//10
f 75//10 84//10 83//10 76//10
f 17//2 20//2 75//2 73//2
f 73//2 75//2 76//2 74//2
f 17//2 73//2 77//2 23//2
f 73//2 74//2 78//2 77//2
f 26//14 79//14 88//14 40//14
f 79//15 80//15 87//15 88//15
f 23//2 77//2 79//2 26//2
f 77//2 78//2 80//2 79//2
f 36//7 85//7 87//7 39//7
f 85//7 86//7 88//7 87//7
f 30//7 33//7 83//7 81//7
f 81//7 83//7 84//7 82//7
f 30//7 81//7 85//7 36//7
f 81//7 82//7 86//7 85//7
f 110//16 91//16 92//16 120//16
f 107//2 89//2 91//2 110//2
f 89//17 90//17 92//17 91//17
f 93//18 95//18 96//18 94//18
f 89//19 93//19 94//19 90//19
f 107//2 113//2 93//2 89//2
f 116//20 126//20 96//20 95//20
f 113//2 116//2 95//2 93//2
f 125//7 128//7 104//7 102//7
f 119//7 98//7 100//7 122//7
f 119//7 125//7 102//7 98//7
f 90//7 94//7 123//7 117//7
f 138//4 142//4 158//4 154//4
f 170//7 174//7 125//7 119//7
f 90//7 117//7 120//7 92//7
f 138//4 154//4 156//4 140//4
f 170//7 119//7 122//7 172//7
f 94//7 96//7 126//7 123//7
f 142//4 144//4 160//4 158//4
f 174//7 176//7 128//7 125//7
f 101//2 103//2 114//2 111//2
f 166//2 168//2 115//2 112//2
f 134//4 136//4 152//4 150//4
f 103//21 104//21 128//21 114//21
f 168//22 175//22 127//22 115//22
f 136//4 143//4 159//4 152//4
f 97//2 101//2 111//2 105//2
f 162//2 166//2 112//2 106//2
f 130//4 134//4 150//4 146//4
f 97//2 105//2 108//2 99//2
f 162//2 106//2 109//2 164//2
f 130//4 146//4 148//4 132//4
f 99//10 108//10 122//10 100//10
f 164//10 109//10 121//10 171//10
f 132//4 148//4 155//4 139//4
f 147//4 131//4 140//4 156//4
f 131//10 132//10 139//10 140//10
f 145//4 129//4 131//4 147//4
f 129//2 130//2 132//2 131//2
f 145//4 149//4 133//4 129//4
f 129//2 133//2 134//2 130//2
f 151//4 160//4 144//4 135//4
f 135//23 144//23 143//23 136//23
f 149//4 151//4 135//4 133//4
f 133//2 135//2 136//2 134//2
f 157//4 159//4 143//4 141//4
f 141//7 143//7 144//7 142//7
f 153//4 137//4 139//4 155//4
f 137//7 138//7 140//7 139//7
f 153//4 157//4 141//4 137//4
f 137//7 141//7 142//7 138//7
f 106//2 145//2 147//2 109//2
f 146//2 150//2 113//2 107//2
f 109//10 147//10 156//10 121//10
f 146//2 107//2 110//2 148//2
f 106//2 112//2 149//2 145//2
f 150//2 152//2 116//2 113//2
f 112//2 115//2 151//2 149//2
f 152//24 159//24 126//24 116//24
f 117//7 153//7 155//7 120//7
f 154//7 158//7 124//7 118//7
f 148//10 110//10 120//10 155//10
f 154//7 118//7 121//7 156//7
f 117//7 123//7 157//7 153//7
f 158//7 160//7 127//7 124//7
f 123//7 126//7 159//7 157//7
f 115//25 127//25 160//25 151//25
f 108//10 163//10 172//10 122//10
f 163//10 164//10 171//10 172//10
f 105//2 161//2 163//2 108//2
f 161//2 162//2 164//2 163//2
f 105//2 111//2 165//2 161//2
f 161//2 165//2 166//2 162//2
f 114//26 128//26 176//26 167//26
f 167//27 176//27 175//27 168//27
f 111//2 114//2 167//2 165//2
f 165//2 167//2 168//2 166//2
f 124//7 127//7 175//7 173//7
f 173//7 175//7 176//7 174//7
f 118//7 169//7 171//7 121//7
f 169//7 170//7 172//7 171//7
f 118//7 124//7 173//7 169//7
f 169//7 173//7 174//7 170//7
