# Blender v2.79 (sub 0) OBJ File: ''
# www.blender.org
mtllib star3.mtl
o Cylinder_Cylinder.002
v -1.484721 -1.140386 1.901641
v -1.484721 2.244444 1.901640
v -0.935392 -1.140386 0.144661
v -0.935392 2.244444 0.144661
v -2.366746 -1.140387 -0.932582
v -2.366746 2.244444 -0.932583
v -0.744498 -1.140387 -0.905278
v -0.744498 2.244444 -0.905279
v -0.022968 -1.140387 -2.495092
v -0.022968 2.244443 -2.495093
v -0.022968 -1.140386 0.889011
v -0.022968 2.244444 0.889011
v 1.438786 -1.140386 1.901641
v 1.438786 2.244444 1.901640
v 0.889457 -1.140386 0.144661
v 0.889457 2.244444 0.144661
v 2.320811 -1.140387 -0.932582
v 2.320811 2.244444 -0.932583
v 0.698562 -1.140387 -0.905278
v 0.698562 2.244444 -0.905279
v -0.022968 2.244444 -0.902182
v -0.022968 2.244444 -0.083889
vn 0.5695 0.0000 0.8220
vn -0.9544 -0.0000 -0.2984
vn -0.6013 0.0000 0.7990
vn 0.0168 -0.0000 -0.9999
vn -0.9106 -0.0000 -0.4133
vn -0.0000 1.0000 -0.0000
vn -0.5695 0.0000 0.8220
vn 0.9544 -0.0000 -0.2984
vn 0.6013 0.0000 0.7990
vn -0.0168 -0.0000 -0.9999
vn 0.9106 -0.0000 -0.4133
usemtl None
s 1
f 11//1 12//1 2//1 1//1
f 1//2 2//2 4//2 3//2
f 3//3 4//3 6//3 5//3
f 5//4 6//4 8//4 7//4
f 7//5 8//5 10//5 9//5
f 8//6 21//6 10//6
f 21//6 8//6 4//6 22//6
f 6//6 4//6 8//6
f 12//6 22//6 4//6 2//6
f 11//7 13//7 14//7 12//7
f 13//8 15//8 16//8 14//8
f 15//9 17//9 18//9 16//9
f 17//10 19//10 20//10 18//10
f 19//11 9//11 10//11 20//11
f 20//6 10//6 21//6
f 21//6 22//6 16//6 20//6
f 18//6 20//6 16//6
f 12//6 14//6 16//6 22//6
